<svg xmlns="http://www.w3.org/2000/svg" viewBox="0 0 300 300"><path fill="#11ff00" d="M272.26 177.32c13.95-62.51-22.8-125.52-83.32-145.89-15.52-5.23-32.1-6.72-48.4-6.22-16.94.52-35.5 1.52-51.64 7.04C56.85 43.21 41.37 81 37.2 112.31c-7.72 57.88 36.61 115.37 94.33 123.83 28.92 4.24 59.38-3.77 81.77-22.76 22.81-19.34 32.27-49.49 26.6-78.59-6.54-33.58-32.03-54.28-62.4-66.66-25.24-10.29-57.32-15.69-80.35 2.61-24.45 19.43-24.41 55.11-14.8 82.23 10.51 29.65 33.54 57.75 68.09 53 26.39-3.63 60.07-27.4 57.23-57.26-1.52-15.91-13.26-27.57-25.23-36.89-12.81-9.97-27.4-19.72-44.41-18.25-13.83 1.19-26.55 9.85-29.71 23.86-2.86 12.68 3.07 25.33 10.71 35.12 7.91 10.13 18.93 19.32 32.08 21.02 12.91 1.66 24.49-6.92 24.43-20.49-.07-16.43-15.14-24.41-28.39-29.73-10.41-4.18-14.78 12.77-4.44 16.92 5.17 2.08 13.04 4.78 14.83 10.67 1.73 5.69-2.5 6.05-6.97 4.71-8.85-2.66-16.26-10.63-20.95-18.29-5.03-8.23-7.65-19.76 3.16-24.76 11.97-5.54 24.97 2.59 34.43 9.46 9.31 6.77 22.32 16.26 23.11 28.79.74 11.66-9.53 21.92-18.4 28.05-9.05 6.25-19.97 10.68-31.12 10.17-13.72-.63-24.5-9.74-31.73-20.81-12.29-18.82-20.16-45.64-12.42-67.65 8.09-22.98 32.64-27.24 53.91-22.7 23.09 4.92 49.8 16.68 62.89 37.19 11.81 18.5 14.46 43.3 5.03 63.39-20.23 43.08-78.58 51.22-116.67 28.68-18.38-10.88-33.25-27.87-41.48-47.6-9.17-21.99-8.05-45.46-.24-67.69 4.4-12.52 10.67-27.37 21.13-36.01 10.23-8.45 24.42-10.23 37.18-11.56 25.38-2.66 51.41-3.22 75.13 7.58 44.66 20.34 71.83 68.42 62.59 117.14-8.73 46.06-44.18 80.19-90.48 87.09-41.61 6.2-93.7-9.61-116.27-47.39-5.4-9.04-8.61-19.34-6.8-29.91 1.88-11.01-15.02-15.57-16.92-4.44-5.07 29.6 13.16 55.39 35.86 72.46 23.16 17.43 51.88 26.83 80.76 27.92 61.31 2.31 116.43-36.72 129.98-97.46z"></path></svg>