<svg xmlns="http://www.w3.org/2000/svg" viewBox="0 0 300 300"><path fill="#7b2adb" d="M144.22 150L137.33 145.06 133.1 138.92 128 133.65 121.47 129.85 116.3 124.65 111.88 118.7 106.98 113.23 100.02 109.85 96.24 103.25 91.22 97.89 85.57 93.17 79.63 88.76 76.09 81.91 69.91 77.72 65.17 73.94 63.39 80 63.67 87.36 63.26 94.73 63.69 102.09 63.38 109.46 65.31 116.83 63.86 124.19 65.45 131.56 65.64 138.93 65.46 146.3 65.26 153.67 66.15 161.04 65.96 168.4 65.56 175.77 63.56 183.14 64.5 190.5 63.2 197.87 65.64 205.25 64.1 212.62 65.52 219.99 64.3 228.12 69.64 222.02 74.51 216.53 80 211.66 85.9 207.21 90.08 201.02 96.28 196.87 101.91 192.14 105.24 185.08 110.41 179.89 116.81 175.93 122.78 171.53 127.63 166.01 131.9 159.9 137.4 155.01 144.22 150z"></path><path fill="#c149d6" d="M243.66 150.88L237.18 145.43 233.42 138.98 228.74 133.35 222.51 129.04 217.76 123.47 213.81 117.19 209.34 111.37 202.66 107.46 199.39 100.59 194.8 94.87 189.53 89.73 183.95 84.88 180.94 77.78 175.1 73.13 170.66 68.99 168.43 74.9 168.15 82.27 167.17 89.58 167.04 96.96 166.16 104.28 167.52 111.77 165.51 119 166.53 126.47 166.16 133.83 165.42 141.17 164.66 148.5 164.98 155.91 164.22 163.24 163.26 170.56 160.71 177.75 161.08 185.17 159.22 192.42 161.09 199.96 158.99 207.19 159.84 214.65 158 222.66 163.79 216.99 169.07 211.88 174.92 207.45 181.15 203.46 185.79 197.6 192.28 193.94 198.26 189.65 202.12 182.88 207.68 178.1 214.35 174.63 220.64 170.71 225.9 165.58 230.62 159.81 236.49 155.35 243.66 150.88z"></path><path fill="#212B50" d="M70.87 84.74v131.01c0 3.22 5 3.22 5 0v-51.06-51.06-28.89c0-3.22-5-3.22-5 0z"></path><path fill="#212B50" d="M74.19 83.13c19.4 19.88 38.79 39.77 58.19 59.65l16.38 16.79v-3.54l-59.87 52.49c-5.61 4.92-11.23 9.84-16.84 14.76-1.02.89-.91 2.62 0 3.54 1.01 1.01 2.52.89 3.54 0l59.87-52.49c5.61-4.92 11.23-9.84 16.84-14.76 1.02-.9.89-2.62 0-3.54-19.4-19.88-38.79-39.77-58.19-59.65L77.73 79.59c-2.25-2.31-5.78 1.23-3.54 3.54zM166.47 80.78c-1.3 18.59-2.3 37.2-2.99 55.82s-1.09 37.09-1.18 55.64c-.05 10.52 0 21.04.13 31.55.04 3.21 5.04 3.22 5 0-.24-18.63-.19-37.27.16-55.9s1.01-37.09 1.96-55.62c.54-10.5 1.18-21 1.91-31.5.09-1.35-1.22-2.5-2.5-2.5-1.43 0-2.41 1.15-2.5 2.5z"></path><path fill="#212B50" d="M166.25 226.57c23.13-13.14 41.82-32.37 62.41-48.91 5.77-4.64 11.73-9.05 17.97-13.05 2.7-1.73.2-6.06-2.52-4.32-22.31 14.32-40.64 33.71-61.75 49.6-5.96 4.49-12.15 8.67-18.63 12.36-2.8 1.59-.28 5.91 2.52 4.32z"></path><path fill="#212B50" d="M170.64 76.72a5854.572 5854.572 0 0169.8 83.7c.86 1.05 2.65.89 3.54 0 1.03-1.03.86-2.49 0-3.54-17.94-21.92-36.03-43.7-54.28-65.36a6826.23 6826.23 0 00-15.52-18.34c-.87-1.03-2.64-.9-3.54 0-1.02 1.02-.88 2.5 0 3.54z"></path></svg>